<svg width="27" height="21" viewBox="0 0 27 21" fill="none" xmlns="http://www.w3.org/2000/svg">
<path d="M22.8716 1.75628C21.1238 0.93855 19.255 0.344256 17.3013 0.00585938C17.0613 0.439671 16.781 1.02316 16.5877 1.48732C14.5108 1.17498 12.453 1.17498 10.4143 1.48732C10.2211 1.02316 9.93437 0.439671 9.69228 0.00585938C7.73641 0.344256 5.86548 0.940733 4.11772 1.76061C0.592473 7.08772 -0.363163 12.2825 0.114656 17.4035C2.45278 19.1496 4.71871 20.2103 6.9464 20.9043C7.49642 20.1473 7.98698 19.3426 8.40957 18.4946C7.60472 18.1887 6.83384 17.8113 6.10546 17.3732C6.2987 17.23 6.48771 17.0803 6.67033 16.9263C11.113 19.0043 15.94 19.0043 20.3296 16.9263C20.5143 17.0803 20.7033 17.23 20.8944 17.3732C20.1639 17.8135 19.3909 18.1909 18.5861 18.4967C19.0087 19.3426 19.4971 20.1495 20.0493 20.9065C22.2791 20.2124 24.5471 19.1518 26.8852 17.4035C27.4459 11.467 25.9275 6.31988 22.8716 1.75628ZM9.01482 14.2541C7.68119 14.2541 6.5875 13.0091 6.5875 11.493C6.5875 9.97684 7.65783 8.72966 9.01482 8.72966C10.3719 8.72966 11.4655 9.97465 11.4421 11.493C11.4443 13.0091 10.3719 14.2541 9.01482 14.2541ZM17.9851 14.2541C16.6514 14.2541 15.5578 13.0091 15.5578 11.493C15.5578 9.97684 16.6281 8.72966 17.9851 8.72966C19.3421 8.72966 20.4358 9.97465 20.4124 11.493C20.4124 13.0091 19.3421 14.2541 17.9851 14.2541Z" fill="white"/>
</svg>
