<svg width="36" height="281" viewBox="0 0 36 281" fill="none" xmlns="http://www.w3.org/2000/svg">
<path d="M27.2853 280.699C27.6716 281.094 28.3048 281.101 28.6995 280.715L35.1315 274.42C35.5262 274.033 35.533 273.4 35.1467 273.005C34.7604 272.611 34.1273 272.604 33.7326 272.99L28.0152 278.586L22.4195 272.869C22.0332 272.474 21.4001 272.467 21.0054 272.853C20.6107 273.24 20.6039 273.873 20.9902 274.267L27.2853 280.699ZM30.0001 0.989248L27.0001 279.989L28.9999 280.011L31.9999 1.01075L30.0001 0.989248Z" fill="white"/>
<path d="M15.1873 129.245C15.1863 130.063 14.9923 130.767 14.6053 131.358C14.2183 131.948 13.6855 132.402 13.0072 132.719C12.3288 133.037 11.554 133.195 10.6827 133.194C9.79638 133.193 9.01437 133.029 8.33672 132.703C7.65528 132.372 7.1236 131.913 6.7417 131.326C6.35601 130.735 6.16362 130.045 6.16452 129.257C6.16522 128.643 6.27949 128.091 6.50732 127.598C6.73516 127.106 7.0538 126.703 7.46325 126.389C7.8727 126.075 8.3502 125.881 8.89574 125.806L8.89421 127.147C8.49636 127.248 8.14383 127.475 7.83661 127.827C7.5256 128.175 7.36976 128.645 7.36909 129.236C7.36849 129.758 7.50433 130.217 7.77661 130.611C8.0451 131.002 8.42543 131.307 8.91761 131.527C9.406 131.744 9.97974 131.852 10.6388 131.853C11.3131 131.854 11.9003 131.748 12.4006 131.537C12.9008 131.322 13.2894 131.019 13.5664 130.629C13.8433 130.236 13.9821 129.774 13.9827 129.243C13.9831 128.895 13.9229 128.578 13.802 128.294C13.6811 128.01 13.5071 127.769 13.2801 127.572C13.053 127.375 12.7805 127.234 12.4624 127.151L12.4639 125.81C12.979 125.886 13.4428 126.074 13.8553 126.374C14.2641 126.67 14.5894 127.062 14.8312 127.551C15.0693 128.036 15.188 128.601 15.1873 129.245ZM15.1975 120.307C15.1966 121.095 15.0083 121.786 14.6326 122.38C14.2569 122.971 13.7318 123.432 13.0572 123.765C12.3825 124.094 11.5945 124.258 10.693 124.257C9.78388 124.256 8.99051 124.09 8.31285 123.759C7.6352 123.425 7.10922 122.963 6.73489 122.371C6.36057 121.776 6.17386 121.085 6.17477 120.297C6.17567 119.509 6.36395 118.82 6.73963 118.229C7.11531 117.635 7.64235 117.174 8.32076 116.845C8.99917 116.512 9.79292 116.346 10.702 116.347C11.6035 116.348 12.3912 116.516 13.0651 116.85C13.7389 117.18 14.263 117.643 14.6374 118.238C15.0117 118.83 15.1984 119.519 15.1975 120.307ZM13.9929 120.306C13.9936 119.707 13.8408 119.215 13.5344 118.828C13.228 118.441 12.8249 118.155 12.3252 117.969C11.8254 117.782 11.2838 117.689 10.7005 117.688C10.1171 117.688 9.57348 117.78 9.06948 117.965C8.56548 118.15 8.15796 118.435 7.84691 118.821C7.53586 119.207 7.37999 119.7 7.37931 120.298C7.37863 120.897 7.53337 121.389 7.84353 121.776C8.15369 122.163 8.56056 122.449 9.06414 122.635C9.56771 122.822 10.1112 122.915 10.6945 122.916C11.2778 122.916 11.8196 122.824 12.3198 122.639C12.82 122.454 13.2238 122.169 13.531 121.783C13.8383 121.396 13.9923 120.904 13.9929 120.306ZM9.77407 112.959L15.0241 112.965L15.0225 114.306L6.29526 114.296L6.29675 113L7.66038 113.002L7.66051 112.888C7.21756 112.683 6.86186 112.372 6.5934 111.955C6.32115 111.538 6.1854 111 6.18615 110.341C6.18683 109.75 6.30863 109.233 6.55156 108.79C6.7907 108.347 7.15473 108.003 7.64365 107.757C8.12878 107.512 8.74256 107.389 9.48498 107.39L15.0304 107.396L15.0289 108.737L9.57436 108.731C8.88875 108.73 8.35446 108.908 7.97147 109.263C7.5847 109.619 7.39096 110.107 7.39025 110.729C7.38976 111.157 7.48213 111.539 7.66735 111.877C7.85257 112.21 8.12311 112.474 8.47895 112.667C8.83479 112.861 9.26649 112.958 9.77407 112.959ZM6.31031 101.141L7.44667 101.142L7.4415 105.665L6.30514 105.663L6.31031 101.141ZM4.21574 104.343L4.21727 103.002L12.5354 103.011C12.9142 103.012 13.1984 102.957 13.3879 102.848C13.5736 102.734 13.6988 102.59 13.7634 102.416C13.8242 102.238 13.8547 102.051 13.855 101.854C13.8551 101.706 13.8477 101.585 13.8326 101.49C13.8138 101.396 13.7987 101.32 13.7874 101.263L14.9923 100.992C15.0263 101.083 15.0602 101.209 15.0941 101.372C15.1318 101.535 15.1505 101.742 15.1502 101.992C15.1498 102.371 15.068 102.742 14.9047 103.105C14.7414 103.465 14.4929 103.764 14.1593 104.002C13.8257 104.236 13.4051 104.353 12.8975 104.353L4.21574 104.343ZM15.0399 99.1337L6.31261 99.1237L6.31415 97.7828L15.0414 97.7927L15.0399 99.1337ZM4.85885 98.4402C4.85855 98.7016 4.76928 98.9268 4.59103 99.116C4.41279 99.3014 4.19867 99.394 3.94867 99.3937C3.69867 99.3934 3.48476 99.3004 3.30694 99.1146C3.12913 98.925 3.04037 98.6995 3.04067 98.4381C3.04097 98.1767 3.13024 97.9534 3.30848 97.768C3.48673 97.5788 3.70085 97.4843 3.95085 97.4846C4.20085 97.4849 4.41476 97.5798 4.59257 97.7694C4.77039 97.9552 4.85915 98.1788 4.85885 98.4402ZM9.79576 93.9899L15.0458 93.9959L15.0442 95.3368L6.31696 95.3268L6.31844 94.0313L7.68207 94.0329L7.6822 93.9193C7.23926 93.7142 6.88355 93.4032 6.61509 92.9862C6.34284 92.5693 6.20709 92.0312 6.20784 91.3721C6.20852 90.7812 6.33032 90.2643 6.57325 89.8214C6.8124 89.3785 7.17643 89.0342 7.66534 88.7886C8.15047 88.5429 8.76425 88.4205 9.50667 88.4214L15.0521 88.4277L15.0506 89.7686L9.59605 89.7624C8.91044 89.7616 8.37615 89.939 7.99317 90.2946C7.6064 90.6502 7.41266 91.1387 7.41194 91.7599C7.41146 92.1879 7.50382 92.5706 7.68904 92.9079C7.87427 93.2415 8.1448 93.505 8.50064 93.6986C8.85648 93.8922 9.28818 93.9893 9.79576 93.9899ZM11.493 80.4733L6.33395 80.4674L6.33548 79.1265L15.0627 79.1365L15.0612 80.4774L13.5839 80.4757L13.5838 80.5666C14.0268 80.7717 14.4033 81.0903 14.7134 81.5225C15.0198 81.9546 15.1725 82.5003 15.1718 83.1594C15.1712 83.7048 15.0513 84.1895 14.8122 84.6135C14.5693 85.0375 14.2052 85.3704 13.7201 85.6122C13.2312 85.8541 12.6155 85.9746 11.8731 85.9738L6.32766 85.9674L6.32919 84.6265L11.7837 84.6328C12.4201 84.6335 12.9279 84.456 13.3071 84.1004C13.6863 83.741 13.8762 83.2829 13.8768 82.7261C13.8772 82.3927 13.7924 82.0536 13.6223 81.7087C13.4523 81.36 13.1912 81.0681 12.8392 80.8328C12.4872 80.5938 12.0385 80.474 11.493 80.4733ZM15.2516 73.0217C15.2506 73.8626 15.0642 74.5877 14.6923 75.1972C14.3166 75.8028 13.7933 76.27 13.1225 76.5988C12.4479 76.9238 11.6636 77.0857 10.7696 77.0847C9.8757 77.0837 9.08801 76.9199 8.40656 76.5934C7.72133 76.2631 7.18777 75.8041 6.80586 75.2166C6.42018 74.6252 6.22778 73.9356 6.22868 73.1477C6.2292 72.6932 6.30547 72.2444 6.4575 71.8014C6.60952 71.3584 6.85619 70.9552 7.19752 70.592C7.53505 70.2287 7.98235 69.9395 8.53942 69.7242C9.09648 69.5089 9.78221 69.4018 10.5966 69.4027L11.1648 69.4034L11.1571 76.1306L9.998 76.1293L10.0041 70.7657C9.51171 70.7651 9.07221 70.8631 8.68562 71.0596C8.29903 71.2523 7.99379 71.5285 7.7699 71.8881C7.54601 72.2439 7.43378 72.6642 7.43323 73.1491C7.43262 73.6832 7.56466 74.1454 7.82937 74.5359C8.09029 74.9226 8.43086 75.2203 8.85108 75.4291C9.27129 75.6379 9.72193 75.7426 10.203 75.7432L10.9757 75.744C11.6348 75.7448 12.1936 75.6318 12.6522 75.4051C13.1071 75.1745 13.454 74.8548 13.6931 74.446C13.9284 74.0372 14.0464 73.562 14.047 73.0203C14.0474 72.668 13.9985 72.3498 13.9004 72.0656C13.7984 71.7776 13.6472 71.5293 13.4467 71.3207C13.2424 71.1122 12.9888 70.9509 12.6859 70.8369L13.051 69.5419C13.4902 69.6787 13.8763 69.9083 14.2093 70.2307C14.5385 70.553 14.7956 70.9511 14.9807 71.4248C15.1619 71.8985 15.2522 72.4308 15.2516 73.0217ZM8.3157 56.6785L8.65523 57.8834C8.45439 57.959 8.25918 58.0705 8.06962 58.218C7.87627 58.3617 7.71696 58.5585 7.59167 58.8083C7.46639 59.0582 7.40352 59.3782 7.40307 59.7684C7.40246 60.3025 7.52506 60.7477 7.77087 61.104C8.01289 61.4566 8.3214 61.633 8.6964 61.6335C9.02973 61.6339 9.29313 61.5129 9.48659 61.2707C9.68004 61.0285 9.84146 60.6499 9.97084 60.1349L10.2905 58.8398C10.4808 58.0598 10.7712 57.4787 11.1618 57.0965C11.5486 56.7144 12.0469 56.5237 12.6568 56.5244C13.1568 56.5249 13.6036 56.6694 13.9972 56.9577C14.3908 57.2423 14.701 57.6403 14.9277 58.152C15.1543 58.6636 15.2673 59.2584 15.2665 59.9364C15.2655 60.8266 15.0715 61.5631 14.6845 62.146C14.2974 62.7289 13.7326 63.0976 12.99 63.252L12.6733 61.9789C13.1431 61.8583 13.4956 61.6295 13.7309 61.2926C13.9661 60.952 14.0841 60.5071 14.0847 59.9578C14.0854 59.3328 13.9534 58.8365 13.6887 58.4687C13.4201 58.0972 13.0984 57.9112 12.7234 57.9108C12.4204 57.9105 12.1664 58.0162 11.9617 58.2281C11.7531 58.44 11.5974 58.7656 11.4946 59.2049L11.1521 60.659C10.9618 61.458 10.6675 62.0448 10.2694 62.4194C9.86742 62.7901 9.36532 62.9752 8.76305 62.9745C8.27062 62.9739 7.83517 62.8351 7.4567 62.5582C7.07824 62.2775 6.78132 61.8964 6.56596 61.4151C6.35061 60.93 6.24328 60.3807 6.24398 59.767C6.24497 58.9034 6.43514 58.2256 6.81449 57.7336C7.19385 57.2378 7.69425 56.8861 8.3157 56.6785ZM15.2768 50.9634C15.2758 51.7816 15.0819 52.4859 14.6948 53.0764C14.3078 53.6669 13.7751 54.1208 13.0967 54.4382C12.4183 54.7556 11.6435 54.9138 10.7723 54.9128C9.8859 54.9118 9.10389 54.748 8.42624 54.4215C7.74479 54.0912 7.21312 53.6322 6.83122 53.0447C6.44553 52.4533 6.25314 51.7637 6.25404 50.9758C6.25474 50.3622 6.36901 49.8093 6.59684 49.3171C6.82468 48.825 7.14332 48.4219 7.55277 48.108C7.96222 47.7941 8.43972 47.5996 8.98526 47.5244L8.98373 48.8653C8.58588 48.9671 8.23335 49.194 7.92613 49.5459C7.61512 49.8941 7.45928 50.3636 7.45861 50.9545C7.45801 51.4772 7.59385 51.9357 7.86613 52.33C8.13462 52.7204 8.51495 53.0258 9.00713 53.246C9.49551 53.4625 10.0693 53.5711 10.7283 53.5719C11.4026 53.5726 11.9898 53.4673 12.4901 53.2557C12.9903 53.0404 13.3789 52.7378 13.6559 52.3479C13.9328 51.9543 14.0716 51.4924 14.0722 50.9621C14.0726 50.6136 14.0124 50.2972 13.8915 50.013C13.7706 49.7288 13.5967 49.488 13.3696 49.2908C13.1426 49.0936 12.87 48.9531 12.5519 48.8694L12.5534 47.5285C13.0685 47.6049 13.5323 47.7929 13.9448 48.0926C14.3536 48.3885 14.6789 48.7809 14.9208 49.2698C15.1588 49.755 15.2775 50.3195 15.2768 50.9634ZM15.1011 45.5712L6.37387 45.5612L6.37535 44.2658L7.69353 44.2673L7.69363 44.1764C7.262 44.0168 6.91195 43.7285 6.64348 43.3115C6.37502 42.8945 6.24109 42.4247 6.24169 41.902C6.2418 41.8035 6.24383 41.6804 6.24779 41.5327C6.25175 41.3849 6.25756 41.2732 6.26522 41.1974L7.62886 41.199C7.61744 41.2444 7.60028 41.3486 7.57736 41.5114C7.55066 41.6705 7.53721 41.8391 7.53701 42.0171C7.53653 42.4413 7.62511 42.8202 7.80276 43.1537C7.97662 43.4835 8.21875 43.7451 8.52913 43.9387C8.83573 44.1284 9.186 44.2235 9.57994 44.224L15.1027 44.2303L15.1011 45.5712ZM15.2935 36.3384C15.2926 37.1263 15.1043 37.8174 14.7286 38.4117C14.353 39.0021 13.8278 39.4637 13.1532 39.7962C12.4786 40.125 11.6905 40.2889 10.789 40.2878C9.8799 40.2868 9.08653 40.1211 8.40888 39.7908C7.73123 39.4567 7.20524 38.994 6.83092 38.4026C6.4566 37.8075 6.26989 37.116 6.27079 36.3281C6.27169 35.5403 6.45998 34.8511 6.83565 34.2606C7.21133 33.6663 7.73838 33.2048 8.41678 32.876C9.09519 32.5435 9.88894 32.3777 10.798 32.3788C11.6995 32.3798 12.4872 32.5474 13.1611 32.8815C13.835 33.2118 14.3591 33.6745 14.7334 34.2696C15.1077 34.861 15.2944 35.5506 15.2935 36.3384ZM14.089 36.3371C14.0896 35.7386 13.9368 35.246 13.6304 34.8593C13.3241 34.4726 12.921 34.1861 12.4212 33.9999C11.9214 33.8138 11.3798 33.7203 10.7965 33.7197C10.2132 33.719 9.6695 33.8112 9.1655 33.9962C8.6615 34.1812 8.25398 34.4668 7.94293 34.8528C7.63188 35.2388 7.47602 35.731 7.47533 36.3295C7.47465 36.928 7.62939 37.4206 7.93955 37.8073C8.24972 38.194 8.65659 38.4805 9.16016 38.6667C9.66374 38.8528 10.2072 38.9463 10.7905 38.9469C11.3739 38.9476 11.9156 38.8554 12.4158 38.6704C12.9161 38.4854 13.3198 38.1998 13.627 37.8138C13.9343 37.4278 14.0883 36.9356 14.089 36.3371ZM3.48373 28.9826L15.1201 28.9959L15.1186 30.3368L3.4822 30.3235L3.48373 28.9826ZM3.48807 25.1857L15.1244 25.199L15.1229 26.54L3.48654 26.5266L3.48807 25.1857ZM15.1272 22.7431L6.39997 22.7331L6.4015 21.3922L15.1288 21.4022L15.1272 22.7431ZM4.94621 22.0496C4.94591 22.311 4.85664 22.5363 4.67839 22.7254C4.50015 22.9109 4.28602 23.0034 4.03603 23.0031C3.78603 23.0028 3.57212 22.9098 3.3943 22.724C3.21648 22.5344 3.12773 22.3089 3.12803 22.0475C3.12833 21.7862 3.2176 21.5628 3.39584 21.3774C3.57408 21.1882 3.78821 21.0937 4.03821 21.094C4.28821 21.0943 4.50211 21.1893 4.67993 21.3789C4.85775 21.5647 4.94651 21.7883 4.94621 22.0496ZM9.88312 17.5993L15.1331 17.6053L15.1316 18.9462L6.40431 18.9362L6.40579 17.6408L7.76943 17.6423L7.76956 17.5287C7.32661 17.3236 6.97091 17.0126 6.70245 16.5957C6.43019 16.1787 6.29445 15.6406 6.2952 14.9816C6.29588 14.3906 6.41768 13.8737 6.66061 13.4308C6.89975 12.9879 7.26378 12.6436 7.7527 12.398C8.23783 12.1523 8.85161 12.0299 9.59403 12.0308L15.1395 12.0371L15.1379 13.378L9.68341 13.3718C8.9978 13.371 8.46351 13.5484 8.08052 13.904C7.69375 14.2597 7.50001 14.7481 7.4993 15.3693C7.49881 15.7973 7.59118 16.18 7.7764 16.5173C7.96162 16.8509 8.23216 17.1145 8.58799 17.308C8.94383 17.5016 9.37554 17.5987 9.88312 17.5993ZM18.6009 6.06806C18.6001 6.71579 18.5161 7.27251 18.3489 7.73823C18.1855 8.20395 17.9692 8.59196 17.6999 8.90226C17.4344 9.20878 17.15 9.45277 16.8468 9.63424L16.098 8.5652C16.2572 8.44417 16.4392 8.29097 16.644 8.1056C16.8525 7.92023 17.0327 7.66665 17.1846 7.34485C17.3403 7.01927 17.4184 6.59323 17.419 6.06671C17.4198 5.36217 17.2501 4.78053 16.9097 4.32181C16.5693 3.86309 16.0355 3.63331 15.3082 3.63248L13.5355 3.63045L13.5353 3.74409C13.6943 3.84275 13.8911 3.98313 14.1258 4.16522C14.3566 4.34351 14.5628 4.60132 14.7442 4.93865C14.9218 5.27219 15.0103 5.72305 15.0097 6.29123C15.0089 6.99577 14.8415 7.62816 14.5075 8.18838C14.1735 8.74482 13.6882 9.18555 13.0515 9.51058C12.4147 9.83182 11.6418 9.99193 10.7327 9.99089C9.83879 9.98986 9.06056 9.83178 8.39804 9.51662C7.73173 9.20147 7.21708 8.76338 6.85409 8.20236C6.48731 7.64133 6.30433 6.9934 6.30517 6.25855C6.30582 5.69037 6.40104 5.23972 6.59081 4.9066C6.7768 4.56969 6.98922 4.31236 7.22806 4.1346C7.46311 3.95305 7.65646 3.81312 7.80808 3.71481L7.80824 3.57845L6.42188 3.57686L6.42336 2.28141L15.4006 2.29167C16.1506 2.29253 16.7603 2.46368 17.2296 2.80513C17.7027 3.14279 18.0488 3.59773 18.2678 4.16995C18.4906 4.73839 18.6017 5.37109 18.6009 6.06806ZM13.8054 6.10803C13.806 5.57015 13.6834 5.11547 13.4376 4.74398C13.1918 4.37248 12.838 4.08988 12.3761 3.89617C11.9142 3.70246 11.3612 3.60524 10.7173 3.6045C10.0885 3.60378 9.53348 3.69784 9.05221 3.88669C8.57093 4.07553 8.19372 4.3554 7.92056 4.7263C7.64741 5.0972 7.51052 5.55538 7.5099 6.10083C7.50925 6.66902 7.65265 7.14266 7.94009 7.52178C8.22754 7.89711 8.61359 8.17975 9.09822 8.3697C9.58285 8.55586 10.1206 8.64928 10.7115 8.64995C11.3176 8.65064 11.8537 8.55656 12.3198 8.3677C12.7822 8.17505 13.1461 7.89137 13.4117 7.51667C13.6735 7.13819 13.8047 6.66864 13.8054 6.10803Z" fill="white"/>
</svg>
