<svg width="27" height="27" viewBox="0 0 27 27" fill="none" xmlns="http://www.w3.org/2000/svg">
<path d="M19.5487 0H7.45082C3.34244 0 0 3.3426 0 7.45098V19.5489C0 23.6574 3.34244 26.9998 7.45082 26.9998H19.5487C23.6574 26.9998 26.9998 23.6572 26.9998 19.5489V7.45098C27 3.3426 23.6574 0 19.5487 0ZM24.6044 19.5489C24.6044 22.3365 22.3365 24.6043 19.5489 24.6043H7.45082C4.66335 24.6044 2.39556 22.3365 2.39556 19.5489V7.45098C2.39556 4.66351 4.66335 2.39556 7.45082 2.39556H19.5487C22.3363 2.39556 24.6043 4.66351 24.6043 7.45098V19.5489H24.6044Z" fill="white"/>
<path d="M13.5001 6.54297C9.6639 6.54297 6.54297 9.6639 6.54297 13.5001C6.54297 17.3362 9.6639 20.457 13.5001 20.457C17.3364 20.457 20.4573 17.3362 20.4573 13.5001C20.4573 9.6639 17.3364 6.54297 13.5001 6.54297ZM13.5001 18.0613C10.985 18.0613 8.93853 16.0152 8.93853 13.5C8.93853 10.9846 10.9848 8.93837 13.5001 8.93837C16.0155 8.93837 18.0618 10.9846 18.0618 13.5C18.0618 16.0152 16.0153 18.0613 13.5001 18.0613Z" fill="white"/>
<path d="M20.7489 4.51172C20.2874 4.51172 19.834 4.69857 19.508 5.02597C19.1805 5.35176 18.9922 5.80532 18.9922 6.26846C18.9922 6.73016 19.1806 7.18356 19.508 7.51096C19.8338 7.83675 20.2874 8.0252 20.7489 8.0252C21.2121 8.0252 21.664 7.83675 21.9914 7.51096C22.3188 7.18356 22.5057 6.73 22.5057 6.26846C22.5057 5.80532 22.3188 5.35176 21.9914 5.02597C21.6656 4.69857 21.2121 4.51172 20.7489 4.51172Z" fill="white"/>
</svg>
