<svg width="27" height="27" viewBox="0 0 27 27" fill="none" xmlns="http://www.w3.org/2000/svg">
<path d="M0 3.49932V23.6887C0 25.5944 1.49964 27.094 3.40532 27.094H23.5947C24.5274 27.094 25.4186 26.6477 25.9868 26.0808C26.5953 25.4724 27 24.7018 27 23.6887V3.49932C27 1.59363 25.5004 0.0939941 23.5947 0.0939941H3.40532C2.39216 0.0939941 1.62158 0.500039 1.01316 1.10716C0.444962 1.67536 0 2.56658 0 3.49932ZM3.64921 6.17428C3.64921 4.87701 4.70389 3.74191 6.00115 3.74191C7.33863 3.74191 8.43353 4.87701 8.43353 6.17428C8.43353 7.51176 7.33863 8.56644 6.00115 8.56644C4.70389 8.56644 3.64921 7.51176 3.64921 6.17428ZM10.1758 22.8364V10.4721C10.1758 10.188 10.4599 9.94543 10.6622 9.94543H14.1078C14.5942 9.94543 14.5942 10.5136 14.5942 10.8782C15.5672 9.90522 16.8242 9.66133 18.1215 9.66133C21.2842 9.66133 23.3106 11.161 23.3106 14.4859V22.8377C23.3106 23.1218 23.0667 23.3644 22.8241 23.3644H19.2566C18.9725 23.3644 18.7701 23.0803 18.7701 22.8377V15.2967C18.7701 14.0396 18.4056 13.3508 16.9864 13.3508C15.2027 13.3508 14.7564 14.5261 14.7564 16.1074V22.8377C14.7564 23.1218 14.4723 23.3644 14.1882 23.3644H10.6609C10.4586 23.3644 10.1745 23.0803 10.1745 22.8377L10.1758 22.8364ZM3.72964 22.8364V10.4721C3.72964 10.188 4.01374 9.94543 4.21611 9.94543H7.74338C8.0677 9.94543 8.27007 10.1478 8.27007 10.4721V22.8364C8.27007 23.1205 8.02619 23.3631 7.74338 23.3631H4.21611C3.97223 23.3631 3.72964 23.079 3.72964 22.8364Z" fill="white"/>
</svg>
