<svg width="727" height="225" viewBox="0 0 727 225" fill="none" xmlns="http://www.w3.org/2000/svg">
<path d="M335.413 148.742H335.263C336.11 151.581 335.064 153 332.125 153H321.891C319.849 153 318.579 151.929 318.081 149.788L311.805 129.467H272.136L266.01 149.788C265.512 151.929 264.242 153 262.2 153H252.413C249.524 153 248.479 151.581 249.275 148.742L280.204 53.8638C280.702 51.6226 282.122 50.502 284.462 50.502H300.226C302.467 50.502 303.886 51.6226 304.484 53.8638L335.413 148.742ZM276.543 114.899H307.248L292.456 66.7134H291.186L276.543 114.899ZM359.02 153C356.38 153 355.061 151.73 355.061 149.19V54.312C355.061 51.772 356.38 50.502 359.02 50.502H367.312C369.952 50.502 371.272 51.772 371.272 54.312V149.19C371.272 151.73 369.952 153 367.312 153H359.02ZM468.391 154.868L468.167 155.017C456.413 155.017 447 151.73 439.928 145.156C432.806 138.582 429.245 129.891 429.245 119.083V84.4937C429.245 73.686 432.831 65.02 440.002 58.4956C447.224 51.9712 456.662 48.709 468.316 48.709C480.419 48.709 489.882 51.7969 496.705 57.9727C503.578 64.1484 507.015 73.0635 507.015 84.7178C507.015 87.1582 505.844 88.3784 503.503 88.3784H494.314C492.272 88.3784 491.102 87.208 490.803 84.8672C490.504 78.0938 488.388 72.8892 484.453 69.2534C480.469 65.5679 475.09 63.7251 468.316 63.7251C461.394 63.7251 455.84 65.6675 451.657 69.5522C447.473 73.437 445.381 78.5918 445.381 85.0166V118.635C445.381 125.06 447.473 130.214 451.657 134.099C455.84 137.984 461.418 139.926 468.391 139.926C475.264 139.926 480.668 138.083 484.603 134.398C488.487 130.762 490.579 125.558 490.878 118.784C491.177 116.443 492.347 115.273 494.389 115.273H503.578C505.919 115.273 507.089 116.593 507.089 119.232C507.089 130.737 503.603 139.553 496.63 145.679C489.708 151.805 480.294 154.868 468.391 154.868ZM547.655 153H547.581C541.355 153 536.35 151.207 532.564 147.621C528.729 144.035 526.812 139.329 526.812 133.501V49.3813C526.812 47.0903 527.982 45.895 530.323 45.7954H538.616C540.957 45.7954 542.127 46.9907 542.127 49.3813V129.691C542.127 132.48 542.974 134.722 544.667 136.415C546.36 138.108 548.626 138.955 551.465 138.955H553.333C554.927 138.955 555.674 139.702 555.574 141.196V149.489C555.574 151.83 554.404 153 552.063 153H547.655ZM628.115 76.5L627.965 76.6494C630.306 76.6494 631.477 77.8198 631.477 80.1606V149.638C631.477 151.979 630.306 153.149 627.965 153.149H619.748C617.407 153.149 616.236 151.979 616.236 149.638V141.645H615.265C613.671 145.629 611.032 148.841 607.346 151.282C603.661 153.722 599.203 154.942 593.974 154.942C587.001 154.942 581.298 152.801 576.866 148.518C572.483 144.284 570.292 138.606 570.292 131.484V80.0859C570.292 77.7451 571.462 76.5747 573.803 76.5747H582.095C584.436 76.5747 585.606 77.7451 585.606 80.0859V126.031C585.606 130.463 586.951 133.975 589.641 136.564C592.38 139.204 595.966 140.524 600.398 140.524C605.08 140.524 608.915 139.104 611.903 136.266C614.892 133.427 616.386 130.04 616.386 126.105V80.0112C616.386 77.6704 617.556 76.5 619.897 76.5H628.115ZM692.438 74.6323L692.512 74.8564C700.033 74.8564 706.159 77.1724 710.89 81.8042C715.572 86.436 717.913 92.5122 717.913 100.033V129.766C717.913 137.336 715.572 143.438 710.89 148.069C706.159 152.701 700.033 155.017 692.512 155.017C687.233 155.017 682.576 153.747 678.542 151.207C674.508 148.667 671.744 145.355 670.25 141.271H669.278V149.563C669.278 151.904 668.108 153.075 665.767 153.075H657.549C655.208 153.075 654.038 151.904 654.038 149.563V49.5308C654.038 47.2397 655.208 46.0444 657.549 45.9448H665.767C668.108 45.9448 669.278 47.1401 669.278 49.5308V88.3784H670.25C671.793 84.2944 674.558 80.9824 678.542 78.4424C682.526 75.9023 687.158 74.6323 692.438 74.6323ZM702.598 125.358L702.672 104.59C702.672 99.9082 701.178 96.1729 698.19 93.3838C695.152 90.5947 691.242 89.2002 686.461 89.2002C681.48 89.2002 677.372 90.6943 674.134 93.6826C670.947 96.6709 669.353 100.257 669.353 104.44V125.508C669.353 129.691 670.922 133.277 674.06 136.266C677.197 139.254 681.281 140.748 686.312 140.748C691.143 140.748 695.077 139.354 698.115 136.564C701.104 133.775 702.598 130.04 702.598 125.358Z" fill="#121212"/>
<mask id="mask0_217_27" style="mask-type:alpha" maskUnits="userSpaceOnUse" x="0" y="0" width="198" height="225">
<g clip-path="url(#clip0_217_27)">
<path d="M91.6399 1.98081L7.35975 50.8424C2.80543 53.4825 0 58.3618 0 63.6424V161.358C0 166.639 2.80543 171.518 7.35975 174.158L91.6399 223.02C96.1942 225.66 101.806 225.66 106.36 223.02L190.641 174.158C195.195 171.518 198 166.639 198 161.358V63.6424C198 58.3618 195.195 53.4825 190.641 50.8424L106.36 1.98081C101.806 -0.659618 96.1946 -0.659618 91.6399 1.98081ZM187.961 160.645L158.467 143.521C156.634 142.456 156.632 139.798 158.465 138.732L187.958 121.565C189.795 120.496 192.096 121.827 192.096 123.959V158.25C192.096 160.38 189.798 161.712 187.961 160.645ZM39.3377 86.0991L10.0366 103.068C8.19964 104.131 5.90464 102.8 5.90464 100.671V66.7405C5.90464 64.6113 8.19932 63.2799 10.0363 64.3434L39.3374 81.3049C41.1763 82.3693 41.1763 85.034 39.3377 86.0987V86.0991ZM138.414 86.0552L105.902 104.794C104.063 105.854 101.771 104.518 101.775 102.39L101.843 64.8882C101.847 62.7619 104.139 61.4344 105.974 62.4956L138.417 81.2581C140.259 82.3232 140.257 84.9927 138.414 86.0552ZM145.449 93.6146V131.166C145.449 133.297 143.151 134.628 141.314 133.561L108.859 114.717C107.02 113.649 107.024 110.983 108.866 109.922L141.322 91.215C143.159 90.156 145.449 91.4877 145.449 93.6146ZM155.484 91.1304L187.962 109.913C189.8 110.975 189.804 113.636 187.969 114.704L155.491 133.606C153.654 134.676 151.354 133.345 151.354 131.213V93.5278C151.354 91.3993 153.647 90.0679 155.484 91.1301V91.1304ZM141.318 76.0957L108.988 57.3984C107.149 56.3346 107.148 53.669 108.987 52.604L141.317 33.8815C143.154 32.8177 145.449 34.1491 145.449 36.2783V73.6983C145.449 75.8269 143.155 77.1582 141.318 76.096V76.0957ZM91.7219 104.775L59.4383 86.0945C57.599 85.0304 57.5987 82.3655 59.4373 81.3007L91.8026 62.5557C93.6418 61.4903 95.9394 62.8265 95.9349 64.9585L95.8532 102.384C95.8487 104.51 93.5566 105.837 91.7219 104.775ZM46.5255 93.5643L46.5695 131.163C46.5721 133.296 44.2707 134.63 42.4324 133.56L10.0279 114.703C8.19386 113.635 8.19675 110.975 10.0331 109.912L42.3935 91.1708C44.2292 90.1076 46.5229 91.4364 46.5255 93.5643ZM56.5618 91.274L88.7831 109.925C90.6187 110.987 90.6229 113.646 88.7908 114.714L56.6132 133.476C54.7775 134.547 52.4764 133.218 52.4742 131.087L52.4305 93.6743C52.4279 91.5439 54.7235 90.2099 56.5618 91.274ZM5.90464 158.236V123.96C5.90464 121.827 8.20575 120.496 10.0434 121.565L39.4647 138.685C41.2962 139.751 41.2975 142.406 39.4669 143.474L10.0456 160.629C8.208 161.701 5.90464 160.37 5.90464 158.236ZM91.7312 119.856C93.5662 118.786 95.8664 120.113 95.8702 122.244L95.9368 159.891C95.9406 162.025 93.6386 163.36 91.7997 162.29L59.4511 143.465C57.6203 142.4 57.6193 139.746 59.4492 138.679L91.7312 119.856V119.856ZM101.844 160.03L101.775 122.254C101.771 120.121 104.071 118.786 105.91 119.853L138.438 138.74C140.271 139.804 140.273 142.462 138.44 143.529L105.981 162.419C104.146 163.487 101.848 162.16 101.844 160.031L101.844 160.03ZM158.568 81.2746L187.968 64.3292C189.805 63.2702 192.095 64.6019 192.095 66.7288V100.675C192.095 102.804 189.802 104.135 187.965 103.073L158.565 86.0723C156.723 85.0072 156.725 82.3377 158.568 81.2752L158.568 81.2746ZM184.994 54.4136C186.834 55.48 186.83 58.1475 184.988 59.2094L155.481 76.218C153.644 77.277 151.354 75.9453 151.354 73.8184V39.7036C151.354 37.5738 153.65 36.2424 155.487 37.3075L184.994 54.4136H184.994ZM101.879 45.0832L101.941 11.0543C101.945 8.92673 104.24 7.59958 106.075 8.66336L135.409 25.6685C137.247 26.7335 137.246 29.3969 135.408 30.4613L106.012 47.4851C104.173 48.5502 101.876 47.215 101.88 45.0832H101.879ZM62.4982 25.7217L91.9035 8.67143C93.7424 7.60506 96.0409 8.94028 96.0368 11.0724L95.9747 45.0923C95.9709 47.2185 93.6791 48.546 91.844 47.4848L62.5008 30.5152C60.6616 29.4517 60.6603 26.7874 62.4982 25.7217ZM88.8727 57.4107L56.5386 76.138C54.703 77.2011 52.4089 75.8727 52.4064 73.7448L52.3594 36.3844C52.3569 34.2569 54.6467 32.9226 56.485 33.9803L88.866 52.6133C90.7104 53.6745 90.7139 56.344 88.8727 57.4107ZM12.9966 54.422L42.3254 37.4153C44.1611 36.3509 46.4561 37.6793 46.459 39.8079L46.502 73.8155C46.5046 75.946 44.2086 77.2802 42.3704 76.2161L12.9986 59.2152C11.1603 58.1511 11.1594 55.4877 12.9966 54.422ZM42.5028 187.686L12.9741 170.569C11.1397 169.506 11.1362 166.849 12.968 165.78L42.4536 148.588C44.2893 147.518 46.5901 148.846 46.5927 150.977L46.6357 185.287C46.6383 187.418 44.3411 188.752 42.5025 187.687L42.5028 187.686ZM56.6348 148.679L88.9978 167.514C90.8293 168.58 90.8293 171.235 88.9978 172.301L56.6817 191.108C54.846 192.176 52.5471 190.848 52.5446 188.718L52.4976 151.076C52.4951 148.942 54.7965 147.609 56.6348 148.678V148.679ZM62.5719 194.537L91.8376 177.503C93.6726 176.435 95.9712 177.762 95.975 179.892L96.0371 213.929C96.0409 216.061 93.7427 217.396 91.9038 216.33L62.576 199.327C60.741 198.263 60.7388 195.604 62.5719 194.537ZM101.941 213.946L101.879 179.818C101.876 177.684 104.178 176.35 106.016 177.419L135.427 194.533C137.26 195.6 137.258 198.259 135.423 199.323L106.075 216.337C104.24 217.401 101.945 216.074 101.941 213.946ZM109.002 167.514L141.312 148.711C143.149 147.642 145.449 148.973 145.449 151.105V188.711C145.449 190.843 143.149 192.174 141.312 191.105L109.002 172.302C107.17 171.236 107.17 168.58 109.002 167.514ZM151.354 185.297V151.035C151.354 148.904 153.652 147.573 155.488 148.64L185.015 165.784C186.85 166.849 186.849 169.51 185.013 170.575L155.487 187.693C153.65 188.758 151.354 187.427 151.354 185.297Z" fill="black"/>
</g>
</mask>
<g mask="url(#mask0_217_27)">
<rect x="-24" y="-20" width="243" height="260" fill="url(#paint0_linear_217_27)"/>
</g>
<defs>
<linearGradient id="paint0_linear_217_27" x1="-24" y1="-29.5" x2="192" y2="234" gradientUnits="userSpaceOnUse">
<stop stop-color="#00FFF7"/>
<stop offset="1" stop-color="#021194"/>
</linearGradient>
<clipPath id="clip0_217_27">
<rect width="198" height="225" fill="white"/>
</clipPath>
</defs>
</svg>
