<svg width="726" height="225" viewBox="0 0 726 225" fill="none" xmlns="http://www.w3.org/2000/svg">
<path d="M334.413 165.742H334.263C335.11 168.581 334.064 170 331.125 170H320.891C318.849 170 317.579 168.929 317.081 166.788L310.805 146.467H271.136L265.01 166.788C264.512 168.929 263.242 170 261.2 170H251.413C248.524 170 247.479 168.581 248.275 165.742L279.204 70.8638C279.702 68.6226 281.122 67.502 283.462 67.502H299.226C301.467 67.502 302.886 68.6226 303.484 70.8638L334.413 165.742ZM275.543 131.899H306.248L291.456 83.7134H290.186L275.543 131.899ZM358.02 170C355.38 170 354.061 168.73 354.061 166.19V71.312C354.061 68.772 355.38 67.502 358.02 67.502H366.312C368.952 67.502 370.272 68.772 370.272 71.312V166.19C370.272 168.73 368.952 170 366.312 170H358.02ZM467.391 171.868L467.167 172.017C455.413 172.017 446 168.73 438.928 162.156C431.806 155.582 428.245 146.891 428.245 136.083V101.494C428.245 90.686 431.831 82.02 439.002 75.4956C446.224 68.9712 455.662 65.709 467.316 65.709C479.419 65.709 488.882 68.7969 495.705 74.9727C502.578 81.1484 506.015 90.0635 506.015 101.718C506.015 104.158 504.844 105.378 502.503 105.378H493.314C491.272 105.378 490.102 104.208 489.803 101.867C489.504 95.0938 487.388 89.8892 483.453 86.2534C479.469 82.5679 474.09 80.7251 467.316 80.7251C460.394 80.7251 454.84 82.6675 450.657 86.5522C446.473 90.437 444.381 95.5918 444.381 102.017V135.635C444.381 142.06 446.473 147.214 450.657 151.099C454.84 154.984 460.418 156.926 467.391 156.926C474.264 156.926 479.668 155.083 483.603 151.398C487.487 147.762 489.579 142.558 489.878 135.784C490.177 133.443 491.347 132.273 493.389 132.273H502.578C504.919 132.273 506.089 133.593 506.089 136.232C506.089 147.737 502.603 156.553 495.63 162.679C488.708 168.805 479.294 171.868 467.391 171.868ZM546.655 170H546.581C540.355 170 535.35 168.207 531.564 164.621C527.729 161.035 525.812 156.329 525.812 150.501V66.3813C525.812 64.0903 526.982 62.895 529.323 62.7954H537.616C539.957 62.7954 541.127 63.9907 541.127 66.3813V146.691C541.127 149.48 541.974 151.722 543.667 153.415C545.36 155.108 547.626 155.955 550.465 155.955H552.333C553.927 155.955 554.674 156.702 554.574 158.196V166.489C554.574 168.83 553.404 170 551.063 170H546.655ZM627.115 93.5L626.965 93.6494C629.306 93.6494 630.477 94.8198 630.477 97.1606V166.638C630.477 168.979 629.306 170.149 626.965 170.149H618.748C616.407 170.149 615.236 168.979 615.236 166.638V158.645H614.265C612.671 162.629 610.032 165.841 606.346 168.282C602.661 170.722 598.203 171.942 592.974 171.942C586.001 171.942 580.298 169.801 575.866 165.518C571.483 161.284 569.292 155.606 569.292 148.484V97.0859C569.292 94.7451 570.462 93.5747 572.803 93.5747H581.095C583.436 93.5747 584.606 94.7451 584.606 97.0859V143.031C584.606 147.463 585.951 150.975 588.641 153.564C591.38 156.204 594.966 157.524 599.398 157.524C604.08 157.524 607.915 156.104 610.903 153.266C613.892 150.427 615.386 147.04 615.386 143.105V97.0112C615.386 94.6704 616.556 93.5 618.897 93.5H627.115ZM691.438 91.6323L691.512 91.8564C699.033 91.8564 705.159 94.1724 709.89 98.8042C714.572 103.436 716.913 109.512 716.913 117.033V146.766C716.913 154.336 714.572 160.438 709.89 165.069C705.159 169.701 699.033 172.017 691.512 172.017C686.233 172.017 681.576 170.747 677.542 168.207C673.508 165.667 670.744 162.355 669.25 158.271H668.278V166.563C668.278 168.904 667.108 170.075 664.767 170.075H656.549C654.208 170.075 653.038 168.904 653.038 166.563V66.5308C653.038 64.2397 654.208 63.0444 656.549 62.9448H664.767C667.108 62.9448 668.278 64.1401 668.278 66.5308V105.378H669.25C670.793 101.294 673.558 97.9824 677.542 95.4424C681.526 92.9023 686.158 91.6323 691.438 91.6323ZM701.598 142.358L701.672 121.59C701.672 116.908 700.178 113.173 697.19 110.384C694.152 107.595 690.242 106.2 685.461 106.2C680.48 106.2 676.372 107.694 673.134 110.683C669.947 113.671 668.353 117.257 668.353 121.44V142.508C668.353 146.691 669.922 150.277 673.06 153.266C676.197 156.254 680.281 157.748 685.312 157.748C690.143 157.748 694.077 156.354 697.115 153.564C700.104 150.775 701.598 147.04 701.598 142.358Z" fill="white"/>
<mask id="mask0_217_26" style="mask-type:alpha" maskUnits="userSpaceOnUse" x="0" y="0" width="198" height="225">
<g clip-path="url(#clip0_217_26)">
<path d="M91.6399 1.98081L7.35975 50.8424C2.80543 53.4825 0 58.3618 0 63.6424V161.358C0 166.639 2.80543 171.518 7.35975 174.158L91.6399 223.02C96.1942 225.66 101.806 225.66 106.36 223.02L190.641 174.158C195.195 171.518 198 166.639 198 161.358V63.6424C198 58.3618 195.195 53.4825 190.641 50.8424L106.36 1.98081C101.806 -0.659618 96.1946 -0.659618 91.6399 1.98081ZM187.961 160.645L158.467 143.521C156.634 142.456 156.632 139.798 158.465 138.732L187.958 121.565C189.795 120.496 192.096 121.827 192.096 123.959V158.25C192.096 160.38 189.798 161.712 187.961 160.645ZM39.3377 86.0991L10.0366 103.068C8.19964 104.131 5.90464 102.8 5.90464 100.671V66.7405C5.90464 64.6113 8.19932 63.2799 10.0363 64.3434L39.3374 81.3049C41.1763 82.3693 41.1763 85.034 39.3377 86.0987V86.0991ZM138.414 86.0552L105.902 104.794C104.063 105.854 101.771 104.518 101.775 102.39L101.843 64.8882C101.847 62.7619 104.139 61.4344 105.974 62.4956L138.417 81.2581C140.259 82.3232 140.257 84.9927 138.414 86.0552ZM145.449 93.6146V131.166C145.449 133.297 143.151 134.628 141.314 133.561L108.859 114.717C107.02 113.649 107.024 110.983 108.866 109.922L141.322 91.215C143.159 90.156 145.449 91.4877 145.449 93.6146ZM155.484 91.1304L187.962 109.913C189.8 110.975 189.804 113.636 187.969 114.704L155.491 133.606C153.654 134.676 151.354 133.345 151.354 131.213V93.5278C151.354 91.3993 153.647 90.0679 155.484 91.1301V91.1304ZM141.318 76.0957L108.988 57.3984C107.149 56.3346 107.148 53.669 108.987 52.604L141.317 33.8815C143.154 32.8177 145.449 34.1491 145.449 36.2783V73.6983C145.449 75.8269 143.155 77.1582 141.318 76.096V76.0957ZM91.7219 104.775L59.4383 86.0945C57.599 85.0304 57.5987 82.3655 59.4373 81.3007L91.8026 62.5557C93.6418 61.4903 95.9394 62.8265 95.9349 64.9585L95.8532 102.384C95.8487 104.51 93.5566 105.837 91.7219 104.775ZM46.5255 93.5643L46.5695 131.163C46.5721 133.296 44.2707 134.63 42.4324 133.56L10.0279 114.703C8.19386 113.635 8.19675 110.975 10.0331 109.912L42.3935 91.1708C44.2292 90.1076 46.5229 91.4364 46.5255 93.5643ZM56.5618 91.274L88.7831 109.925C90.6187 110.987 90.6229 113.646 88.7908 114.714L56.6132 133.476C54.7775 134.547 52.4764 133.218 52.4742 131.087L52.4305 93.6743C52.4279 91.5439 54.7235 90.2099 56.5618 91.274ZM5.90464 158.236V123.96C5.90464 121.827 8.20575 120.496 10.0434 121.565L39.4647 138.685C41.2962 139.751 41.2975 142.406 39.4669 143.474L10.0456 160.629C8.208 161.701 5.90464 160.37 5.90464 158.236ZM91.7312 119.856C93.5662 118.786 95.8664 120.113 95.8702 122.244L95.9368 159.891C95.9406 162.025 93.6386 163.36 91.7997 162.29L59.4511 143.465C57.6203 142.4 57.6193 139.746 59.4492 138.679L91.7312 119.856V119.856ZM101.844 160.03L101.775 122.254C101.771 120.121 104.071 118.786 105.91 119.853L138.438 138.74C140.271 139.804 140.273 142.462 138.44 143.529L105.981 162.419C104.146 163.487 101.848 162.16 101.844 160.031L101.844 160.03ZM158.568 81.2746L187.968 64.3292C189.805 63.2702 192.095 64.6019 192.095 66.7288V100.675C192.095 102.804 189.802 104.135 187.965 103.073L158.565 86.0723C156.723 85.0072 156.725 82.3377 158.568 81.2752L158.568 81.2746ZM184.994 54.4136C186.834 55.48 186.83 58.1475 184.988 59.2094L155.481 76.218C153.644 77.277 151.354 75.9453 151.354 73.8184V39.7036C151.354 37.5738 153.65 36.2424 155.487 37.3075L184.994 54.4136H184.994ZM101.879 45.0832L101.941 11.0543C101.945 8.92673 104.24 7.59958 106.075 8.66336L135.409 25.6685C137.247 26.7335 137.246 29.3969 135.408 30.4613L106.012 47.4851C104.173 48.5502 101.876 47.215 101.88 45.0832H101.879ZM62.4982 25.7217L91.9035 8.67143C93.7424 7.60506 96.0409 8.94028 96.0368 11.0724L95.9747 45.0923C95.9709 47.2185 93.6791 48.546 91.844 47.4848L62.5008 30.5152C60.6616 29.4517 60.6603 26.7874 62.4982 25.7217ZM88.8727 57.4107L56.5386 76.138C54.703 77.2011 52.4089 75.8727 52.4064 73.7448L52.3594 36.3844C52.3569 34.2569 54.6467 32.9226 56.485 33.9803L88.866 52.6133C90.7104 53.6745 90.7139 56.344 88.8727 57.4107ZM12.9966 54.422L42.3254 37.4153C44.1611 36.3509 46.4561 37.6793 46.459 39.8079L46.502 73.8155C46.5046 75.946 44.2086 77.2802 42.3704 76.2161L12.9986 59.2152C11.1603 58.1511 11.1594 55.4877 12.9966 54.422ZM42.5028 187.686L12.9741 170.569C11.1397 169.506 11.1362 166.849 12.968 165.78L42.4536 148.588C44.2893 147.518 46.5901 148.846 46.5927 150.977L46.6357 185.287C46.6383 187.418 44.3411 188.752 42.5025 187.687L42.5028 187.686ZM56.6348 148.679L88.9978 167.514C90.8293 168.58 90.8293 171.235 88.9978 172.301L56.6817 191.108C54.846 192.176 52.5471 190.848 52.5446 188.718L52.4976 151.076C52.4951 148.942 54.7965 147.609 56.6348 148.678V148.679ZM62.5719 194.537L91.8376 177.503C93.6726 176.435 95.9712 177.762 95.975 179.892L96.0371 213.929C96.0409 216.061 93.7427 217.396 91.9038 216.33L62.576 199.327C60.741 198.263 60.7388 195.604 62.5719 194.537ZM101.941 213.946L101.879 179.818C101.876 177.684 104.178 176.35 106.016 177.419L135.427 194.533C137.26 195.6 137.258 198.259 135.423 199.323L106.075 216.337C104.24 217.401 101.945 216.074 101.941 213.946ZM109.002 167.514L141.312 148.711C143.149 147.642 145.449 148.973 145.449 151.105V188.711C145.449 190.843 143.149 192.174 141.312 191.105L109.002 172.302C107.17 171.236 107.17 168.58 109.002 167.514ZM151.354 185.297V151.035C151.354 148.904 153.652 147.573 155.488 148.64L185.015 165.784C186.85 166.849 186.849 169.51 185.013 170.575L155.487 187.693C153.65 188.758 151.354 187.427 151.354 185.297Z" fill="black"/>
</g>
</mask>
<g mask="url(#mask0_217_26)">
<rect x="-25" y="-19" width="243" height="260" fill="url(#paint0_linear_217_26)"/>
</g>
<defs>
<linearGradient id="paint0_linear_217_26" x1="-25" y1="-28.5" x2="191" y2="235" gradientUnits="userSpaceOnUse">
<stop stop-color="#00FFF7"/>
<stop offset="1" stop-color="#021194"/>
</linearGradient>
<clipPath id="clip0_217_26">
<rect width="198" height="225" fill="white"/>
</clipPath>
</defs>
</svg>
