<svg width="27" height="19" viewBox="0 0 27 19" fill="none" xmlns="http://www.w3.org/2000/svg">
<path fill-rule="evenodd" clip-rule="evenodd" d="M10.7844 12.9913V5.41535C13.4739 6.68088 15.5569 7.90341 18.0204 9.22146C15.9885 10.3483 13.4739 11.6127 10.7844 12.9913ZM25.7729 1.64748C25.3089 1.03626 24.5182 0.560469 23.6764 0.402951C21.2021 -0.0669167 5.76583 -0.0682532 3.29286 0.402951C2.6178 0.5295 2.01668 0.835387 1.5003 1.31064C-0.675489 3.33011 0.00629934 14.1599 0.530749 15.9141C0.751285 16.6734 1.03638 17.221 1.39543 17.5805C1.85802 18.0558 2.49138 18.383 3.21888 18.5297C5.25616 18.9511 15.7519 19.1867 23.6334 18.593C24.3595 18.4665 25.0023 18.1287 25.5093 17.6332C27.521 15.6219 27.3839 4.18393 25.7729 1.64748Z" fill="white"/>
</svg>
